<?xml version="1.0" encoding="UTF-8"?>
<svg width="18px" height="18px" viewBox="0 0 18 18" version="1.1" xmlns="http://www.w3.org/2000/svg" xmlns:xlink="http://www.w3.org/1999/xlink">
    <!-- Generator: Sketch 46.2 (44496) - http://www.bohemiancoding.com/sketch -->
    <title>facebook-square - FontAwesome</title>
    <desc>Created with Sketch.</desc>
    <defs></defs>
    <g id="updated-8.25" stroke="none" stroke-width="1" fill="none" fill-rule="evenodd">
        <g id="Home" transform="translate(-45.000000, -3806.000000)" fill="#403E3D">
            <path d="M58.928588,3806.2857 L48.2142895,3806.2857 C46.4397339,3806.2857 45,3807.72543 45,3809.49999 L45,3820.21428 C45,3821.98884 46.4397339,3823.42857 48.2142895,3823.42857 L54.1517966,3823.42857 L54.1517966,3816.78794 L51.9196511,3816.78794 L51.9196511,3814.19865 L54.1517966,3814.19865 L54.1517966,3812.29017 C54.1517966,3810.08034 55.5134054,3808.87498 57.4888542,3808.87498 C58.4263553,3808.87498 59.2410884,3808.94195 59.4754637,3808.97543 L59.4754637,3811.2857 L58.1138549,3811.29686 C57.0312643,3811.29686 56.8303712,3811.79909 56.8303712,3812.54686 L56.8303712,3814.19865 L59.3861779,3814.19865 L59.051356,3816.78794 L56.8303712,3816.78794 L56.8303712,3823.42857 L58.928588,3823.42857 C60.7031437,3823.42857 62.1428776,3821.98884 62.1428776,3820.21428 L62.1428776,3809.49999 C62.1428776,3807.72543 60.7031437,3806.2857 58.928588,3806.2857 Z" id="facebook-square---FontAwesome"></path>
        </g>
    </g>
</svg>