<svg id="Layer_1" data-name="Layer 1" xmlns="http://www.w3.org/2000/svg" xmlns:xlink="http://www.w3.org/1999/xlink" viewBox="0 0 639 480.32"><defs><style>.cls-1,.cls-31{fill:none;}.cls-2{clip-path:url(#clip-path);}.cls-3{clip-path:url(#clip-path-2);}.cls-4{fill:#404652;}.cls-5{clip-path:url(#clip-path-3);}.cls-6{fill:#191c23;}.cls-7{clip-path:url(#clip-path-5);}.cls-8{fill:#090a0d;}.cls-9{clip-path:url(#clip-path-7);}.cls-10{clip-path:url(#clip-path-9);}.cls-11{clip-path:url(#clip-path-11);}.cls-12{clip-path:url(#clip-path-13);}.cls-13{clip-path:url(#clip-path-15);}.cls-14{clip-path:url(#clip-path-17);}.cls-15{fill:#282c34;}.cls-16{clip-path:url(#clip-path-19);}.cls-17{clip-path:url(#clip-path-21);}.cls-18{clip-path:url(#clip-path-23);}.cls-19{fill:#363b45;}.cls-20{clip-path:url(#clip-path-25);}.cls-21{clip-path:url(#clip-path-27);}.cls-22{clip-path:url(#clip-path-29);}.cls-23{clip-path:url(#clip-path-31);}.cls-24{clip-path:url(#clip-path-35);}.cls-25{clip-path:url(#clip-path-37);}.cls-26{clip-path:url(#clip-path-39);}.cls-27{clip-path:url(#clip-path-41);}.cls-28{clip-path:url(#clip-path-43);}.cls-29{clip-path:url(#clip-path-45);}.cls-30{clip-path:url(#clip-path-47);}.cls-31{stroke:#090a0d;stroke-miterlimit:10;}.cls-32{clip-path:url(#clip-path-50);}.cls-33{clip-path:url(#clip-path-52);}.cls-34{clip-path:url(#clip-path-54);}.cls-35{clip-path:url(#clip-path-56);}.cls-36{clip-path:url(#clip-path-58);}.cls-37{clip-path:url(#clip-path-60);}.cls-38{clip-path:url(#clip-path-62);}.cls-39{clip-path:url(#clip-path-64);}.cls-40{clip-path:url(#clip-path-66);}.cls-41{clip-path:url(#clip-path-68);}.cls-42{clip-path:url(#clip-path-70);}.cls-43{clip-path:url(#clip-path-72);}.cls-44{clip-path:url(#clip-path-74);}.cls-45{clip-path:url(#clip-path-76);}.cls-46{clip-path:url(#clip-path-78);}.cls-47{clip-path:url(#clip-path-80);}.cls-48{clip-path:url(#clip-path-82);}.cls-49{clip-path:url(#clip-path-84);}.cls-50{clip-path:url(#clip-path-86);}.cls-51{clip-path:url(#clip-path-88);}.cls-52{clip-path:url(#clip-path-90);}.cls-53{clip-path:url(#clip-path-92);}</style><clipPath id="clip-path"><rect class="cls-1" x="319.72" y="160.91" width="159.64" height="79.83"/></clipPath><clipPath id="clip-path-2"><rect class="cls-1" width="639" height="479"/></clipPath><clipPath id="clip-path-3"><rect class="cls-1" x="559.17" y="81.08" width="79.83" height="79.83"/></clipPath><clipPath id="clip-path-5"><rect class="cls-1" x="319.72" y="240.73" width="159.64" height="79.83"/></clipPath><clipPath id="clip-path-7"><rect class="cls-1" x="80.25" y="240.73" width="159.64" height="79.83"/></clipPath><clipPath id="clip-path-9"><rect class="cls-1" x="399.53" y="1.27" width="159.64" height="159.64"/></clipPath><clipPath id="clip-path-11"><rect class="cls-1" x="559.17" y="400.39" width="79.83" height="79.83"/></clipPath><clipPath id="clip-path-13"><rect class="cls-1" x="0.43" y="1.27" width="159.64" height="159.64"/></clipPath><clipPath id="clip-path-15"><polygon class="cls-1" points="639 320.56 479.36 320.56 479.36 480.2 639 320.56"/></clipPath><clipPath id="clip-path-17"><polygon class="cls-1" points="319.72 81.08 160.08 81.08 160.08 240.73 319.72 81.08"/></clipPath><clipPath id="clip-path-19"><polygon class="cls-1" points="160.08 320.56 0.42 320.56 0.42 480.2 160.08 320.56"/></clipPath><clipPath id="clip-path-21"><rect class="cls-1" x="239.89" y="160.91" width="79.83" height="79.83"/></clipPath><clipPath id="clip-path-23"><rect class="cls-1" x="239.89" y="160.91" width="39.91" height="39.91"/></clipPath><clipPath id="clip-path-25"><polygon class="cls-1" points="639 1.27 559.17 1.27 559.17 81.08 639 1.27"/></clipPath><clipPath id="clip-path-27"><polygon class="cls-1" points="559.17 240.73 559.17 160.91 479.36 160.91 559.17 240.73"/></clipPath><clipPath id="clip-path-29"><rect class="cls-1" x="579.12" y="21.23" width="39.91" height="39.91"/></clipPath><clipPath id="clip-path-31"><polygon class="cls-1" points="319.72 480.2 479.36 480.2 479.36 320.56 319.72 480.2"/></clipPath><clipPath id="clip-path-35"><rect class="cls-1" x="359.62" y="360.46" width="79.83" height="79.83"/></clipPath><clipPath id="clip-path-37"><rect class="cls-1" x="359.62" y="121.01" width="39.91" height="39.91"/></clipPath><clipPath id="clip-path-39"><rect class="cls-1" x="239.89" y="1.27" width="79.83" height="79.83"/></clipPath><clipPath id="clip-path-41"><rect class="cls-1" x="559.19" y="160.91" width="39.91" height="39.91"/></clipPath><clipPath id="clip-path-43"><rect class="cls-1" x="319.7" y="1.27" width="79.83" height="39.91"/></clipPath><clipPath id="clip-path-45"><rect class="cls-1" x="319.7" y="41.18" width="79.83" height="79.83"/></clipPath><clipPath id="clip-path-47"><rect class="cls-1" x="422.91" y="24.64" width="112.89" height="112.89" transform="translate(83.07 362.7) rotate(-45)"/></clipPath><clipPath id="clip-path-50"><polygon class="cls-1" points="399.53 121.01 399.53 41.18 319.72 41.18 399.53 121.01"/></clipPath><clipPath id="clip-path-52"><polygon class="cls-1" points="159.99 480.32 159.99 400.51 80.16 400.51 159.99 480.32"/></clipPath><clipPath id="clip-path-54"><rect class="cls-1" x="80.25" y="160.91" width="79.83" height="79.83"/></clipPath><clipPath id="clip-path-56"><polygon class="cls-1" points="160.08 240.73 160.08 160.91 80.25 160.91 160.08 240.73"/></clipPath><clipPath id="clip-path-58"><polygon class="cls-1" points="80.25 160.91 0.42 160.91 0.42 240.73 80.25 160.91"/></clipPath><clipPath id="clip-path-60"><polygon class="cls-1" points="0.42 240.73 0.42 320.56 80.25 320.56 0.42 240.73"/></clipPath><clipPath id="clip-path-62"><polygon class="cls-1" points="319.72 400.38 319.72 320.56 239.89 320.56 319.72 400.38"/></clipPath><clipPath id="clip-path-64"><polygon class="cls-1" points="239.89 320.56 239.89 240.73 160.08 240.73 239.89 320.56"/></clipPath><clipPath id="clip-path-66"><polygon class="cls-1" points="639 240.73 559.17 240.73 559.17 320.56 639 240.73"/></clipPath><clipPath id="clip-path-68"><polygon class="cls-1" points="639 400.4 559.17 400.4 559.17 480.21 639 400.4"/></clipPath><clipPath id="clip-path-70"><polygon class="cls-1" points="479.36 320.56 559.17 320.56 559.17 240.73 479.36 320.56"/></clipPath><clipPath id="clip-path-72"><polygon class="cls-1" points="319.72 121.01 319.72 160.91 359.62 160.91 319.72 121.01"/></clipPath><clipPath id="clip-path-74"><rect class="cls-1" x="160.06" y="320.57" width="39.91" height="39.91"/></clipPath><clipPath id="clip-path-76"><rect class="cls-1" x="279.81" y="400.39" width="39.91" height="39.91"/></clipPath><clipPath id="clip-path-78"><rect class="cls-1" x="160.06" y="440.29" width="79.83" height="39.91"/></clipPath><clipPath id="clip-path-80"><rect class="cls-1" x="160.06" y="360.44" width="79.83" height="79.83"/></clipPath><clipPath id="clip-path-82"><polygon class="cls-1" points="160.08 1.27 160.08 81.08 239.89 81.08 160.08 1.27"/></clipPath><clipPath id="clip-path-84"><polygon class="cls-1" points="239.89 360.46 239.89 320.56 199.98 320.56 239.89 360.46"/></clipPath><clipPath id="clip-path-86"><polygon class="cls-1" points="279.79 480.2 279.79 440.29 239.89 440.29 279.79 480.2"/></clipPath><clipPath id="clip-path-88"><rect class="cls-1" x="0.43" y="1.27" width="159.64" height="79.83"/></clipPath><clipPath id="clip-path-90"><polygon class="cls-1" points="0.42 1.27 0.42 81.08 80.25 81.08 0.42 1.27"/></clipPath><clipPath id="clip-path-92"><circle class="cls-1" cx="478.18" cy="79.69" r="34.33"/></clipPath></defs><title>superGlyph-Dark</title><g class="cls-2"><g class="cls-3"><rect class="cls-4" x="314.72" y="155.91" width="169.64" height="89.83"/></g></g><g class="cls-5"><g class="cls-3"><rect class="cls-6" x="554.17" y="76.08" width="89.83" height="89.83"/></g></g><g class="cls-7"><g class="cls-3"><rect class="cls-8" x="314.72" y="235.73" width="169.64" height="89.83"/></g></g><g class="cls-9"><g class="cls-3"><rect class="cls-8" x="75.25" y="235.73" width="169.64" height="89.83"/></g></g><g class="cls-10"><g class="cls-3"><rect class="cls-8" x="394.53" y="-3.73" width="169.64" height="169.64"/></g></g><g class="cls-11"><g class="cls-3"><rect class="cls-4" x="554.17" y="395.39" width="89.83" height="89.83"/></g></g><g class="cls-12"><g class="cls-3"><rect class="cls-4" x="-4.57" y="-3.73" width="169.64" height="169.64"/></g></g><g class="cls-13"><g class="cls-3"><rect class="cls-8" x="474.36" y="315.56" width="169.64" height="169.64"/></g></g><g class="cls-14"><g class="cls-3"><rect class="cls-15" x="155.08" y="76.08" width="169.64" height="169.64"/></g></g><g class="cls-16"><g class="cls-3"><rect class="cls-15" x="-4.58" y="315.56" width="169.66" height="169.64"/></g></g><g class="cls-17"><g class="cls-3"><rect class="cls-8" x="234.89" y="155.91" width="89.83" height="89.83"/></g></g><g class="cls-18"><g class="cls-3"><rect class="cls-19" x="234.89" y="155.91" width="49.91" height="49.91"/></g></g><g class="cls-20"><g class="cls-3"><rect class="cls-4" x="554.17" y="-3.73" width="89.83" height="89.81"/></g></g><g class="cls-21"><g class="cls-3"><rect class="cls-4" x="474.36" y="155.91" width="89.81" height="89.81"/></g></g><g class="cls-22"><g class="cls-3"><rect class="cls-15" x="574.12" y="16.23" width="49.91" height="49.91"/></g></g><g class="cls-23"><g class="cls-3"><rect class="cls-8" x="314.72" y="315.56" width="169.64" height="169.64"/></g></g><g class="cls-23"><g class="cls-3"><rect class="cls-4" x="314.72" y="315.56" width="169.64" height="169.64"/></g></g><g class="cls-24"><g class="cls-3"><rect class="cls-15" x="354.62" y="355.46" width="89.83" height="89.83"/></g></g><g class="cls-25"><g class="cls-3"><rect class="cls-6" x="354.62" y="116.01" width="49.91" height="49.91"/></g></g><g class="cls-26"><g class="cls-3"><rect class="cls-8" x="234.89" y="-3.73" width="89.83" height="89.83"/></g></g><g class="cls-27"><g class="cls-3"><rect class="cls-8" x="554.19" y="155.91" width="49.91" height="49.91"/></g></g><g class="cls-28"><g class="cls-3"><rect class="cls-15" x="314.7" y="-3.73" width="89.83" height="49.91"/></g></g><g class="cls-29"><g class="cls-3"><rect class="cls-8" x="314.7" y="36.18" width="89.83" height="89.83"/></g></g><g class="cls-30"><g class="cls-3"><rect class="cls-19" x="417.91" y="19.64" width="122.89" height="122.89" transform="translate(83.07 362.7) rotate(-45)"/></g></g><g class="cls-3"><rect class="cls-31" x="422.91" y="24.64" width="112.89" height="112.89" transform="translate(83.07 362.7) rotate(-45)"/></g><g class="cls-32"><g class="cls-3"><rect class="cls-6" x="314.72" y="36.18" width="89.81" height="89.83"/></g></g><g class="cls-33"><g class="cls-3"><rect class="cls-6" x="75.16" y="395.51" width="89.83" height="89.81"/></g></g><g class="cls-34"><g class="cls-3"><rect class="cls-15" x="75.25" y="155.91" width="89.83" height="89.83"/></g></g><g class="cls-35"><g class="cls-3"><rect class="cls-6" x="75.25" y="155.91" width="89.83" height="89.81"/></g></g><g class="cls-36"><g class="cls-3"><rect class="cls-6" x="-4.58" y="155.91" width="89.83" height="89.81"/></g></g><g class="cls-37"><g class="cls-3"><rect class="cls-4" x="-4.58" y="235.73" width="89.83" height="89.83"/></g></g><g class="cls-38"><g class="cls-3"><rect class="cls-6" x="234.89" y="315.56" width="89.83" height="89.83"/></g></g><g class="cls-39"><g class="cls-3"><rect class="cls-6" x="155.08" y="235.73" width="89.81" height="89.83"/></g></g><g class="cls-40"><g class="cls-3"><rect class="cls-4" x="554.17" y="235.73" width="89.83" height="89.83"/></g></g><g class="cls-41"><g class="cls-3"><rect class="cls-15" x="554.17" y="395.4" width="89.83" height="89.81"/></g></g><g class="cls-42"><g class="cls-3"><rect class="cls-6" x="474.36" y="235.73" width="89.81" height="89.83"/></g></g><g class="cls-43"><g class="cls-3"><rect class="cls-15" x="314.72" y="116.01" width="49.91" height="49.91"/></g></g><g class="cls-44"><g class="cls-3"><rect class="cls-6" x="155.06" y="315.57" width="49.91" height="49.91"/></g></g><g class="cls-45"><g class="cls-3"><rect class="cls-4" x="274.81" y="395.39" width="49.91" height="49.91"/></g></g><g class="cls-46"><g class="cls-3"><rect class="cls-8" x="155.06" y="435.29" width="89.83" height="49.91"/></g></g><g class="cls-47"><g class="cls-3"><rect class="cls-15" x="155.06" y="355.44" width="89.83" height="89.83"/></g></g><g class="cls-48"><g class="cls-3"><rect class="cls-6" x="155.08" y="-3.73" width="89.81" height="89.81"/></g></g><g class="cls-49"><g class="cls-3"><rect class="cls-15" x="194.98" y="315.56" width="49.91" height="49.91"/></g></g><g class="cls-50"><g class="cls-3"><rect class="cls-15" x="234.89" y="435.29" width="49.91" height="49.91"/></g></g><g class="cls-51"><g class="cls-3"><rect class="cls-8" x="-4.57" y="-3.73" width="169.64" height="89.83"/></g></g><g class="cls-52"><g class="cls-3"><rect class="cls-6" x="-4.58" y="-3.73" width="89.83" height="89.81"/></g></g><g class="cls-53"><g class="cls-3"><rect class="cls-6" x="438.84" y="40.36" width="78.66" height="78.66"/></g></g></svg>